<svg width="30" height="31.8" viewBox="0 0 50 53" fill="none" xmlns="http://www.w3.org/2000/svg">
<path d="M49.6805 0.373557C49.4522 0.135021 49.1241 0 48.7817 0H1.2183C0.875916 0 0.547794 0.135021 0.319535 0.373557C0.0865205 0.612092 -0.0276087 0.931641 0.00567928 1.25569L4.29028 46.681C4.33308 47.1581 4.68498 47.5542 5.17003 47.6892L24.6624 52.955C24.767 52.9865 24.8811 53 24.9952 53C25.1094 53 25.2187 52.9865 25.3281 52.955L44.8347 47.6892C45.3198 47.5542 45.6669 47.1581 45.7145 46.681L49.9943 1.25569C50.0276 0.931641 49.9135 0.612092 49.6805 0.373557ZM39.4231 16.0359H16.5211L17.068 21.9003H38.8715L37.2356 39.2324L24.9905 42.7339L24.8716 42.6979L12.7691 39.2279L12.1081 32.1664H18.0381L18.2949 34.9073L25.0618 36.2485L31.7051 34.9073L32.4136 27.4901H11.6659L10.0538 10.4326H39.9509L39.4231 16.0359Z" fill="#B64E34"/>
</svg>
