<svg width="30" height="31.8" viewBox="0 0 50 50" fill="none" xmlns="http://www.w3.org/2000/svg">
<path d="M0 50V0H50V50H0Z" fill="#D7BC3C"/>
<path d="M32.6917 37.4266C33.6528 38.9877 34.6972 40.4835 36.9097 40.4835C38.7681 40.4835 39.7431 39.5599 39.7431 38.2821C39.7431 36.753 38.7347 36.2099 36.6903 35.3196L35.5695 34.8419C32.3347 33.4696 30.1834 31.7502 30.1834 28.1182C30.1834 24.771 32.7459 22.2238 36.75 22.2238C39.6014 22.2238 41.65 23.2113 43.1278 25.7974L39.6361 28.0294C38.8681 26.6571 38.0375 26.1169 36.75 26.1169C35.4361 26.1169 34.6042 26.946 34.6042 28.0294C34.6042 29.3682 35.4375 29.9099 37.3611 30.7391L38.482 31.2169C42.2945 32.8405 44.4445 34.4988 44.4445 38.2266C44.4445 42.2432 41.2722 44.4446 37.0139 44.4446C32.8486 44.4446 30.4834 42.3544 29.1667 39.7669L32.6917 37.4266ZM16.6 37.5405C17.3028 38.7988 18.3709 39.7669 19.907 39.7669C21.3764 39.7669 22.2222 39.1863 22.2222 36.9294V22.2224H26.8514V37.6405C26.8514 42.3169 24.1389 44.4446 20.1778 44.4446C16.5986 44.4446 14.0153 42.0196 12.9625 39.7669L16.6 37.5405Z" fill="white"/>
</svg>
