<svg width="50" height="45" viewBox="0 0 50 45" fill="none" xmlns="http://www.w3.org/2000/svg">
<path d="M29.0624 22.5001C29.0624 24.7459 27.2455 26.5629 24.9999 26.5629C22.7543 26.5629 20.9374 24.7459 20.9374 22.5001C20.9374 20.2543 22.7543 18.4373 24.9999 18.4373C27.2455 18.4373 29.0624 20.2543 29.0624 22.5001Z" fill="#11D9FD"/>
<path d="M24.9999 26.875C22.588 26.875 20.6249 24.9123 20.6249 22.4996C20.6249 20.0869 22.588 18.1243 24.9999 18.1243C27.4117 18.1243 29.3749 20.0869 29.3749 22.4996C29.3749 24.9123 27.4117 26.875 24.9999 26.875ZM24.9999 18.7493C22.9318 18.7493 21.2499 20.4313 21.2499 22.4996C21.2499 24.5679 22.9318 26.2499 24.9999 26.2499C27.068 26.2499 28.7499 24.5679 28.7499 22.4996C28.7499 20.4313 27.068 18.7493 24.9999 18.7493Z" fill="#11D9FD"/>
<path d="M15.2961 44.6908C14.2268 44.6908 13.253 44.4458 12.4011 43.9632C10.9761 43.155 9.99113 41.7624 9.47238 39.8254C8.86925 37.5708 8.94113 34.5762 9.67988 31.1509C3.72238 29.1014 0.312378 25.9567 0.312378 22.4996C0.312378 19.0418 3.72175 15.8978 9.67925 13.8489C8.9405 10.4229 8.868 7.42832 9.47113 5.17375C9.98988 3.23609 10.9749 1.84348 12.3993 1.03591C13.2505 0.55337 14.2249 0.30835 15.2943 0.30835C18.0368 0.30835 21.4761 2.01474 25.0011 5.12C28.5261 2.01787 31.9643 0.312725 34.7036 0.312725C35.773 0.312725 36.7468 0.557745 37.5986 1.04029C39.0218 1.84723 40.0074 3.23734 40.5261 5.1725C41.1299 7.42644 41.0574 10.4217 40.318 13.8482C46.2768 15.8971 49.6874 19.0418 49.6874 22.4996C49.6874 25.9574 46.2768 29.102 40.318 31.1515C41.0568 34.5775 41.1293 37.5721 40.5255 39.826C40.0068 41.7618 39.0224 43.1519 37.6005 43.9589C36.748 44.4414 35.7736 44.6864 34.7049 44.6864C31.9636 44.6864 28.5243 42.9813 25.0005 39.8804C21.4755 42.985 18.0368 44.6908 15.2961 44.6908ZM12.0855 31.8791C11.4661 34.8275 11.3968 37.3464 11.888 39.1791C12.2268 40.4454 12.8136 41.3236 13.6343 41.7887C14.1049 42.0556 14.6643 42.1912 15.2961 42.1912C17.4174 42.1912 20.2099 40.7648 23.1843 38.1678C21.6936 36.6664 20.2386 34.9669 18.8543 33.1105C16.4599 32.8504 14.1849 32.4366 12.0855 31.8791ZM26.8161 38.1665C29.7899 40.7611 32.583 42.1862 34.7043 42.1868C35.3361 42.1868 35.8955 42.0512 36.3674 41.7843C37.1855 41.3205 37.7711 40.4442 38.1093 39.1797C38.6005 37.3458 38.5318 34.8275 37.9124 31.8797C35.8111 32.4373 33.5355 32.8511 31.1418 33.1111C29.758 34.9675 28.3049 36.6664 26.8161 38.1665ZM22.2286 33.3711C23.1361 34.4812 24.0649 35.5169 24.9999 36.4589C25.9324 35.5175 26.8618 34.4818 27.7686 33.3711C26.8368 33.4155 25.9086 33.438 24.9999 33.438C24.0905 33.438 23.1618 33.4155 22.2286 33.3711ZM20.218 30.7371C21.7774 30.8703 23.3855 30.9378 24.9999 30.9378C26.6155 30.9378 28.2218 30.8703 29.7786 30.7378C30.7074 29.4351 31.593 28.07 32.4124 26.678C33.2049 25.3311 33.9505 23.9253 34.6293 22.4989C33.9524 21.0763 33.2074 19.6712 32.413 18.3211C31.5955 16.9322 30.7099 15.5671 29.7786 14.2614C28.223 14.1289 26.6168 14.0614 24.9999 14.0614C23.3824 14.0614 21.7755 14.1289 20.2205 14.262C19.2893 15.5659 18.4024 16.931 17.5836 18.3217C16.7899 19.6712 16.0449 21.0763 15.3674 22.5008C16.0436 23.9222 16.7886 25.3273 17.583 26.6787C18.398 28.0632 19.2836 29.4276 20.218 30.7371ZM35.9318 25.4867C35.4905 26.328 35.033 27.1531 34.5661 27.9457C34.0955 28.747 33.5949 29.5508 33.0749 30.3433C34.5586 30.1146 35.978 29.8214 37.3068 29.4683C36.938 28.1875 36.4761 26.8518 35.9318 25.4867ZM12.6899 29.4677C14.0193 29.8202 15.438 30.114 16.9199 30.3427C16.3968 29.5452 15.8961 28.7407 15.4286 27.9457C14.963 27.1537 14.5049 26.3299 14.0643 25.4886C13.5224 26.8474 13.0611 28.1819 12.6899 29.4677ZM37.3849 22.4996C38.3399 24.6191 39.118 26.7143 39.7024 28.7357C44.3286 27.1081 47.1874 24.7335 47.1874 22.4996C47.1874 20.2656 44.3286 17.8911 39.7024 16.2634C39.1193 18.2848 38.3405 20.38 37.3849 22.4996ZM10.2949 16.2647C5.6705 17.8917 2.81238 20.2663 2.81238 22.4996C2.81238 24.7335 5.6705 27.1081 10.2961 28.7351C10.8799 26.713 11.658 24.6179 12.6118 22.5008C11.6574 20.3831 10.8793 18.288 10.2949 16.2647ZM12.6893 15.5315C13.0605 16.8153 13.5218 18.1505 14.0643 19.5118C14.5043 18.673 14.9618 17.8486 15.4293 17.0541C15.8993 16.2547 16.3999 15.4509 16.9218 14.6564C15.438 14.8846 14.0193 15.1783 12.6893 15.5315ZM33.0761 14.6558C33.5993 15.454 34.0999 16.2578 34.5674 17.0541C35.0336 17.8461 35.4918 18.6705 35.933 19.5118C36.4761 18.1511 36.9374 16.816 37.3086 15.5309C35.9774 15.1777 34.5586 14.8839 33.0761 14.6558ZM15.2943 2.80856C14.6624 2.80856 14.1036 2.94357 13.6336 3.21109C12.8136 3.67613 12.2261 4.55433 11.8868 5.82068C11.3961 7.65521 11.4649 10.1735 12.0849 13.1207C14.1849 12.5631 16.4611 12.1487 18.8561 11.8887C20.2418 10.0317 21.6968 8.33339 23.1855 6.83327C20.2105 4.23493 17.4161 2.80856 15.2943 2.80856ZM31.1424 11.8881C33.5361 12.1481 35.8118 12.5619 37.913 13.1194C38.533 10.1717 38.6024 7.65271 38.1105 5.81881C37.7718 4.55495 37.1855 3.67863 36.3668 3.21484C35.8955 2.94794 35.3361 2.81231 34.7036 2.81231C32.583 2.81231 29.7911 4.23805 26.8168 6.83327C28.3043 8.33277 29.758 10.0317 31.1424 11.8881ZM24.9999 11.5612C25.9086 11.5612 26.8368 11.5837 27.7693 11.628C26.863 10.5192 25.9343 9.48411 25.0011 8.54154C24.0655 9.48536 23.1374 10.5205 22.2311 11.628C23.163 11.5837 24.0911 11.5612 24.9999 11.5612Z" fill="#11D9FD"/>
<path d="M15.2944 0.621302C18.1031 0.621302 21.5419 2.4402 25.0019 5.53859C28.4612 2.4427 31.8981 0.625677 34.7044 0.625677C35.7188 0.625677 36.6412 0.856947 37.4456 1.31261C38.7931 2.07642 39.7281 3.40216 40.2244 5.25419C40.8975 7.70252 40.7562 10.7171 39.9531 14.0549C45.7169 15.9807 49.375 19.0191 49.375 22.5C49.375 25.9809 45.7169 29.0193 39.9525 30.9457C40.7906 34.5541 40.9313 37.65 40.2238 39.7458C39.7275 41.5972 38.7931 42.9236 37.4469 43.6874C36.6413 44.1437 35.9094 44.3768 34.8956 44.3768C34.895 44.3768 34.6356 44.3768 34.635 44.3768C31.8275 44.3768 28.4587 42.5579 25 39.4633C21.5406 42.561 18.1031 44.3787 15.2956 44.3787C14.2812 44.3787 13.3587 44.1474 12.5544 43.6918C11.2056 42.9261 10.27 41.5985 9.77437 39.7452C9.03062 37.4219 9.18063 34.3679 10.0456 30.9451C4.2825 29.0187 0.625 25.9809 0.625 22.5C0.625 19.0197 4.2825 15.9813 10.045 14.0549C9.61563 12.1429 9.34125 10.3677 9.33187 8.74885C9.32437 7.47 9.49875 6.28052 9.77375 5.25481C10.27 3.40091 11.205 2.0733 12.5538 1.30823C13.3575 0.851946 14.28 0.621302 15.2944 0.621302ZM11.8488 13.508C14.0219 12.9111 16.435 12.4598 19.0256 12.1848C20.5144 10.1783 22.0725 8.37445 23.6419 6.81932C20.5969 4.10284 17.6319 2.49583 15.2944 2.49583C14.6075 2.49583 13.9975 2.6446 13.4794 2.93899C12.5837 3.44716 11.9469 4.38912 11.585 5.73985C11.0487 7.74127 11.1706 10.4465 11.8488 13.508ZM38.1494 13.5074C38.8275 10.4459 38.9494 7.74002 38.4131 5.7386C38.0519 4.39037 37.415 3.45029 36.5212 2.94337C36.0025 2.64897 35.3906 2.50021 34.7044 2.50021C32.3688 2.50021 29.4056 4.10534 26.3613 6.81932C27.93 8.37445 29.4862 10.1783 30.9737 12.1841C33.5631 12.4592 35.9763 12.9105 38.1494 13.5074ZM21.5481 11.9779C22.6744 11.911 23.8038 11.8529 24.9781 11.8529C26.1525 11.8529 27.325 11.9116 28.4512 11.9779C27.3212 10.5534 26.1612 9.25202 25.0006 8.10005C23.84 9.25202 22.6794 10.5534 21.5481 11.9779ZM25 31.2507C26.7256 31.2507 28.3775 31.1751 29.9487 31.037C30.8981 29.7137 31.8163 28.3086 32.6813 26.8372C33.5269 25.4002 34.2919 23.9457 34.975 22.5C34.2919 21.0543 33.5269 19.6004 32.6819 18.164C31.8163 16.692 30.8987 15.2875 29.9487 13.9643C28.3781 13.8249 26.7263 13.7493 25 13.7493C23.2737 13.7493 21.6213 13.8249 20.05 13.9637C19.0994 15.2869 18.1806 16.692 17.315 18.1634C16.47 19.6004 15.705 21.0549 15.0219 22.5006C15.705 23.9464 16.4694 25.4002 17.3144 26.8366C18.18 28.308 19.0981 29.7131 20.0481 31.0363C21.62 31.1751 23.2731 31.2507 25 31.2507ZM35.9663 20.2579C36.6694 18.5647 37.2513 16.902 37.695 15.3119C36.0994 14.8731 34.3369 14.5106 32.4275 14.2449C33.07 15.1994 33.6956 16.1888 34.2975 17.2127C34.8937 18.2246 35.4481 19.2422 35.9663 20.2579ZM14.0306 20.2586C14.5481 19.2429 15.1031 18.2253 15.6981 17.2127C16.3006 16.1888 16.9269 15.2 17.57 14.2456C15.6606 14.5106 13.8981 14.8737 12.3025 15.3125C12.7462 16.9027 13.3281 18.5647 14.0306 20.2586ZM39.4925 29.1393C44.54 27.4292 47.5 24.9165 47.5 22.5C47.5 20.0835 44.54 17.5708 39.4925 15.8607C38.8969 17.989 38.0744 20.2254 37.0425 22.4994C38.0744 24.7739 38.8969 27.0104 39.4925 29.1393ZM10.5062 29.1387C11.1012 27.011 11.9231 24.7746 12.955 22.5012C11.9231 20.2273 11.1006 17.9902 10.5056 15.8619C5.45875 17.5721 2.5 20.0842 2.5 22.5C2.5 24.9165 5.45937 27.4285 10.5062 29.1387ZM32.4275 30.7551C34.3369 30.49 36.0994 30.1275 37.695 29.6881C37.2506 28.098 36.6688 26.4353 35.9663 24.7414C35.4481 25.7571 34.8931 26.7747 34.2975 27.7873C33.6956 28.8111 33.07 29.8006 32.4275 30.7551ZM17.5681 30.7544C16.9256 29.8 16.3 28.8111 15.6975 27.7879C15.1025 26.776 14.5481 25.759 14.0306 24.7439C13.3281 26.4366 12.7469 28.0986 12.3031 29.6881C13.8981 30.1263 15.66 30.4888 17.5681 30.7544ZM15.2963 42.5035C17.6331 42.5035 20.5969 40.8972 23.6413 38.1819C22.0706 36.6262 20.5131 34.8216 19.0237 32.8146C16.4344 32.5402 14.0225 32.0889 11.85 31.492C11.1725 34.5535 11.0506 37.2587 11.5863 39.2601C11.9475 40.6103 12.585 41.5522 13.48 42.0604C13.9975 42.3548 14.6094 42.5035 15.2963 42.5035ZM34.7044 42.4998C35.3913 42.4998 36.0019 42.351 36.5212 42.0566C37.415 41.5497 38.0506 40.6096 38.4113 39.2608C38.9475 37.2587 38.8256 34.5535 38.1481 31.4926C35.975 32.0895 33.5625 32.5408 30.9725 32.8152C29.485 34.8216 27.9281 36.6255 26.3594 38.1813C29.4037 40.894 32.3675 42.4992 34.7044 42.4998ZM25 36.9012C26.1606 35.7486 27.3206 34.4466 28.4512 33.0221C27.3256 33.089 26.2269 33.2303 25.0519 33.2303C23.8763 33.2303 22.6725 33.089 21.5462 33.0221C22.6775 34.4472 23.8387 35.7492 25 36.9012ZM15.0725 0.0431287C13.9481 0.0431287 13.1444 0.254396 12.2456 0.763814C10.7463 1.61451 9.71125 3.07088 9.17 5.09292C8.57 7.33499 8.62187 10.2821 9.3175 13.6443C3.38687 15.7426 0 18.9528 0 22.5C0 26.0478 3.3875 29.2574 9.31813 31.3557C8.6225 34.7179 8.57062 37.665 9.17125 39.9071C9.71187 41.9279 10.7462 43.3842 12.2469 44.2362C13.1469 44.7462 14.2281 44.9631 15.3519 44.9631C18.1562 44.9631 21.4475 43.3786 25.0006 40.2965C28.5531 43.3755 31.9 44.9994 34.7038 45C35.8281 45 36.8544 44.7418 37.7544 44.2318C39.2525 43.3824 40.2862 41.9279 40.8269 39.9083C41.4275 37.6656 41.3756 34.7185 40.68 31.357C46.6119 29.2581 50 26.0478 50 22.5C50 18.9522 46.6125 15.7419 40.6806 13.6436C41.3769 10.2809 41.4281 7.33374 40.8275 5.09167C40.2862 3.07213 39.2519 1.61763 37.7531 0.768189C36.8537 0.258772 35.8275 0 34.7038 0C31.9006 0 28.5544 1.62451 25.0012 4.70477C21.4475 1.62201 18.085 0.0412534 15.28 0.0412534L15.0725 0.0431287ZM12.325 12.7348C12.0362 11.2822 11.8425 9.92083 11.8319 8.72698C11.8225 7.65189 11.97 6.71618 12.1881 5.90112C12.505 4.71852 13.0431 3.9047 13.7875 3.48217C14.21 3.24215 14.725 3.07963 15.3019 3.07963C17.29 3.07963 19.9063 4.441 22.7288 6.8512C21.3406 8.27194 19.9837 9.86332 18.6875 11.5922C16.4469 11.8422 14.3106 12.2254 12.325 12.7348ZM27.2738 6.85245C30.0956 4.44412 32.7181 3.12526 34.7038 3.12526C35.2813 3.12526 35.7894 3.24715 36.2125 3.48717C36.9556 3.90845 37.4931 4.72039 37.8094 5.90049C38.3556 7.66189 38.285 10.0033 37.6731 12.7342C35.6875 12.2254 33.5519 11.8416 31.3119 11.5928C30.0162 9.86457 28.6606 8.27319 27.2738 6.85245ZM22.9206 11.2866C23.6056 10.474 24.3012 9.70518 25.0006 8.98762C25.7 9.70518 26.395 10.474 27.0794 11.2866C26.38 11.2616 25.6844 11.2491 25 11.2491C24.3156 11.2491 23.6206 11.2616 22.9206 11.2866ZM20.3906 14.5618C21.8937 14.4375 23.4425 14.3487 25 14.3487C26.5569 14.3487 28.1056 14.4375 29.6081 14.5618C30.5031 15.8238 31.3556 17.1408 32.1431 18.4803C32.9069 19.7791 33.6263 21.1299 34.2825 22.4994C33.6256 23.8695 32.9063 25.2209 32.1425 26.5197C31.3544 27.8598 30.5025 29.1762 29.6075 30.4382C28.1056 30.5625 26.5569 30.7294 25 30.7294C23.4419 30.7294 21.8925 30.5619 20.3888 30.4375C19.4931 29.1762 18.6406 27.8592 17.8525 26.5191C17.0887 25.2209 16.37 23.8701 15.7138 22.5C16.37 21.1299 17.0894 19.7785 17.8531 18.4797C18.6419 17.1402 19.495 15.8232 20.3906 14.5618ZM35.8888 18.7647C35.5456 18.1284 35.1937 17.5033 34.8369 16.8958C34.4806 16.2901 34.1075 15.6819 33.7212 15.0775C34.83 15.2663 35.8994 15.4919 36.9175 15.7526C36.6256 16.7314 36.2813 17.739 35.8888 18.7647ZM13.08 15.7526C14.0981 15.4919 15.1675 15.2663 16.2762 15.0775C15.8894 15.6819 15.5163 16.2901 15.16 16.8952C14.8031 17.5027 14.4512 18.1278 14.1081 18.7641C13.7156 17.7396 13.3719 16.732 13.08 15.7526ZM37.7281 22.4994C38.6125 20.523 39.345 18.5665 39.9094 16.6701C44.2237 18.2446 46.875 20.4505 46.875 22.5C46.875 24.5495 44.2237 26.7554 39.9094 28.3299C39.3444 26.4328 38.6125 24.4758 37.7281 22.4994ZM10.0888 28.3292C5.77563 26.7547 3.125 24.5489 3.125 22.5C3.125 20.4511 5.77563 18.2453 10.0881 16.6708C10.6525 18.5678 11.3844 20.5242 12.2687 22.5006C11.385 24.4764 10.6531 26.4328 10.0888 28.3292ZM33.7206 29.9231C34.1069 29.3181 34.4806 28.7099 34.8362 28.1048C35.1937 27.4973 35.5456 26.8716 35.8888 26.2353C36.2813 27.261 36.625 28.2692 36.9175 29.2487C35.8988 29.5081 34.8294 29.7344 33.7206 29.9231ZM13.0806 29.2474C13.3725 28.2686 13.7162 27.2616 14.1081 26.2372C14.4506 26.8729 14.8025 27.4979 15.1594 28.1048C15.515 28.7099 15.8881 29.3174 16.275 29.9225C15.1669 29.7331 14.0981 29.5075 13.0806 29.2474ZM15.2963 41.8785C14.7188 41.8785 14.2113 41.7566 13.7881 41.5166C13.0444 41.094 12.5062 40.2809 12.19 39.0983C11.6706 37.32 11.7294 34.9779 12.3263 32.2646C14.3113 32.7734 16.4462 33.1571 18.6856 33.4059C19.9825 35.1348 21.3394 36.7268 22.7281 38.1488C19.9063 40.5596 17.2831 41.8791 15.2963 41.8785ZM31.3112 33.4072C33.5512 33.1578 35.6869 32.7746 37.6725 32.2658C38.3631 35.2286 38.4175 37.59 37.8081 39.0989C37.4925 40.2796 36.9556 41.0915 36.2131 41.5122C35.7894 41.7522 35.2819 41.8741 34.705 41.8741V42.4992L34.7044 41.8741C32.7169 41.8741 30.0938 40.5553 27.2725 38.1482C28.66 36.7274 30.0156 35.1361 31.3112 33.4072ZM25 36.0136C24.3 35.2961 23.6037 34.5266 22.9187 33.7134C23.6187 33.7384 24.315 33.7509 25 33.7509C25.6844 33.7509 26.38 33.7384 27.0794 33.7134C26.395 34.5266 25.6994 35.2961 25 36.0136Z" fill="#11D9FD"/>
</svg>
